<svg width="488" height="267" viewBox="0 0 488 267" fill="none" xmlns="http://www.w3.org/2000/svg">
<g clip-path="url(#clip0_62_41)">
<path d="M300.346 222.496V142.911L399.135 170.287L379.032 222.496H300.346Z" fill="#333333" stroke="black" stroke-width="2"/>
<path d="M122.603 198.271L113.041 222.541L32.1977 228.01L30.1348 200.326L55.4603 174.994H99.3258L122.603 198.271Z" fill="#333333" stroke="black" stroke-width="2"/>
<path d="M371.365 232.688C371.365 250.22 357.153 264.433 339.62 264.433C322.088 264.433 307.876 250.22 307.876 232.688C307.876 215.156 322.088 200.944 339.62 200.944C357.153 200.944 371.365 215.156 371.365 232.688Z" fill="#0A0A0A" stroke="black" stroke-width="2"/>
<path d="M105.782 232.688C105.782 250.743 91.1457 265.38 73.0904 265.38C55.0351 265.38 40.3984 250.743 40.3984 232.688C40.3984 214.633 55.0351 199.996 73.0904 199.996C91.1457 199.996 105.782 214.633 105.782 232.688Z" fill="#0A0A0A" stroke="black" stroke-width="2"/>
<path d="M37.8542 196.193C37.8627 196.184 37.8714 196.175 37.8803 196.166C38.0967 195.941 38.4158 195.619 38.8337 195.22C39.6694 194.422 40.9016 193.316 42.5003 192.071C45.6957 189.583 50.3687 186.528 56.2795 184.265C68.1433 179.725 84.9116 178.417 104.552 191.085L104.578 191.102L104.603 191.12C113.075 197.363 118.771 206.556 120.722 211.303H179.063V75.6766L136.37 77.3678L136.339 77.369L37.8542 196.193ZM37.8542 196.193H4.35971C3.42207 187.407 7.65729 177.866 12.3537 170.315C14.762 166.443 17.2576 163.147 19.1519 160.82C20.0985 159.656 20.8934 158.737 21.4503 158.109C21.7287 157.796 21.9474 157.555 22.0957 157.394C22.1699 157.313 22.2264 157.253 22.264 157.212L22.2773 157.198L103.625 90.5624L103.658 90.5359L103.688 90.5068C110.669 83.7402 118.825 80.4506 125.26 78.855C128.475 78.0578 131.251 77.6861 133.218 77.5138C134.201 77.4277 134.981 77.3915 135.512 77.3767C135.777 77.3693 135.98 77.3673 136.114 77.3671C136.182 77.367 136.232 77.3673 136.264 77.3677L136.3 77.3682L136.307 77.3683L136.308 77.3683L136.308 77.3683L37.8542 196.193Z" fill="#CBCBCB" stroke="black" stroke-width="2"/>
<path d="M93.91 232.688C93.91 244.187 84.5885 253.508 73.0898 253.508C61.5911 253.508 52.2695 244.187 52.2695 232.688C52.2695 221.189 61.5911 211.868 73.0898 211.868C84.5885 211.868 93.91 221.189 93.91 232.688Z" fill="#ADADAD" stroke="black" stroke-width="2"/>
<path d="M360.441 232.688C360.441 244.187 351.12 253.508 339.621 253.508C328.122 253.508 318.801 244.187 318.801 232.688C318.801 221.189 328.122 211.868 339.621 211.868C351.12 211.868 360.441 221.189 360.441 232.688Z" fill="#ADADAD" stroke="black" stroke-width="2"/>
<path d="M181.063 74.6362V1.627H487V189.03H181.063V74.6362Z" fill="#A6A6A6" stroke="black" stroke-width="2"/>
<path d="M298.821 221.844C298.736 222.092 298.664 222.31 298.604 222.496H114.571C114.53 222.291 114.479 222.051 114.417 221.779C114.197 220.801 113.844 219.411 113.308 217.745C112.237 214.418 110.433 209.974 107.498 205.523C101.606 196.591 91.1574 187.652 73.0972 187.652C54.9712 187.652 44.2363 198.056 38.0828 208.35C35.0095 213.491 33.0637 218.624 31.886 222.466C31.2966 224.389 30.8981 225.993 30.6464 227.12C30.5879 227.382 30.5373 227.618 30.494 227.827L10.2334 222.324C10.2052 222.311 10.1648 222.292 10.113 222.266C9.98625 222.202 9.79191 222.098 9.54456 221.944C9.04996 221.637 8.34325 221.132 7.54058 220.364C5.9402 218.831 3.93873 216.228 2.48225 211.992C1.86781 210.121 1.49731 207.079 1.28499 204.418C1.18011 203.104 1.1158 201.913 1.07772 201.049C1.0587 200.618 1.04625 200.269 1.03858 200.029C1.03474 199.909 1.0321 199.816 1.03042 199.753L1.0286 199.682L1.02819 199.665L1.02809 199.661L1.02807 199.66L1.02807 199.66L1.02807 199.66L1.02559 199.548L1.0027 199.456C1.00218 199.453 1.00148 199.449 1.0007 199.443C0.997322 199.418 0.993109 199.373 0.994369 199.316C0.996955 199.201 1.02149 199.064 1.09479 198.935C1.19924 198.751 1.62871 198.2 3.47176 198.2H38.2809H38.7391L39.0378 197.854L39.0379 197.854L39.0383 197.853L39.0385 197.853L39.0436 197.847L39.0677 197.82C39.0901 197.794 39.1251 197.755 39.1724 197.703C39.267 197.599 39.4112 197.444 39.6039 197.244C39.9893 196.845 40.5683 196.269 41.3324 195.575C42.8612 194.188 45.127 192.332 48.0614 190.476C53.9316 186.763 62.4503 183.062 73.0901 183.062C94.4315 183.062 111.927 196.088 119.115 212.714L119.375 213.317H120.033H180.056H181.056V212.317V191.045H467.223V205.02L380.387 222.343C380.331 222.187 380.268 222.012 380.195 221.819C379.872 220.951 379.376 219.719 378.682 218.243C377.297 215.293 375.115 211.358 371.932 207.418C365.554 199.527 355.129 191.597 339.069 191.597C323.006 191.597 312.808 199.531 306.659 207.432C303.591 211.376 301.526 215.314 300.228 218.266C299.578 219.743 299.119 220.976 298.821 221.844ZM10.2802 222.345C10.2799 222.345 10.279 222.345 10.2776 222.344L10.2787 222.345L10.2802 222.345Z" fill="#494949" stroke="black" stroke-width="2"/>
<path d="M7.743 178.981C10.2861 172.208 14.4446 164.174 21.0114 158.283C21.0676 158.544 21.127 158.834 21.1873 159.152C21.4774 160.682 21.7868 162.837 21.8631 165.326C22.0162 170.322 21.2275 176.563 17.5761 181.839C13.8626 187.205 10.2402 189.357 7.63654 190.202C6.32714 190.627 5.25212 190.729 4.52038 190.729C4.4777 190.729 4.43618 190.729 4.39584 190.728C4.51665 190.094 4.70228 189.19 4.96687 188.074C5.5143 185.767 6.39837 182.562 7.743 178.981ZM3.45697 190.642L3.45844 190.642C3.45595 190.641 3.4547 190.641 3.4547 190.641L3.45483 190.641L3.45697 190.642Z" fill="#FFE53F" stroke="black" stroke-width="2"/>
<path d="M113.196 92.4108C113.2 92.407 113.21 92.3976 113.227 92.3828C113.261 92.3534 113.321 92.3028 113.41 92.2337C113.59 92.0955 113.889 91.8832 114.336 91.619C115.229 91.0904 116.713 90.3531 119.01 89.5846C123.606 88.0467 131.444 86.3884 144.285 86.0227C157.195 85.6551 162.883 85.4321 165.345 85.3005C165.961 85.2676 166.382 85.2401 166.666 85.2169C166.922 85.1962 167.131 85.1748 167.273 85.1416L167.275 85.1412C167.279 85.1401 167.285 85.1388 167.292 85.1369C167.325 85.1408 167.359 85.1454 167.396 85.1509C167.672 85.1927 168.033 85.2826 168.393 85.4696C169.052 85.8116 169.848 86.5426 169.972 88.3445C170.041 89.3383 169.9 92.5009 169.633 96.8017C169.369 101.06 168.989 106.337 168.599 111.483C168.209 116.629 167.811 121.64 167.509 125.366C167.358 127.228 167.232 128.769 167.143 129.844C167.099 130.382 167.064 130.803 167.04 131.09L167.016 131.379C166.996 131.427 166.969 131.488 166.935 131.563C166.84 131.772 166.689 132.08 166.474 132.458C166.045 133.213 165.362 134.24 164.359 135.303C162.364 137.419 159.087 139.698 153.94 140.263C148.563 140.852 125.567 142.076 103.858 143.153C93.016 143.691 82.5125 144.193 74.7193 144.559C70.8228 144.742 67.6039 144.892 65.3591 144.996C64.2368 145.048 63.358 145.088 62.7597 145.116L62.0775 145.147L61.9576 145.152C61.9403 145.149 61.9203 145.144 61.8979 145.139C61.7941 145.114 61.6431 145.072 61.4695 145.005C61.1137 144.868 60.7136 144.647 60.4095 144.305C60.1237 143.984 59.8828 143.514 59.8828 142.777C59.8828 142.012 60.1437 140.909 60.9855 139.367C61.3557 138.689 62.4098 137.434 64.1015 135.681C65.7598 133.963 67.9447 131.853 70.4783 129.493C75.5438 124.775 81.9705 119.089 88.2932 113.601C94.6144 108.114 100.825 102.83 105.456 98.9174C107.771 96.9613 109.691 95.3483 111.032 94.2243C111.703 93.6624 112.229 93.2227 112.587 92.9236L112.995 92.5827L113.1 92.4956L113.126 92.4736L113.133 92.4681L113.134 92.4667C113.135 92.4664 113.135 92.4663 112.495 91.6979L113.135 92.4663L113.17 92.4372L113.196 92.4108ZM113.196 92.4108C113.194 92.4127 113.194 92.4132 113.195 92.4122L113.196 92.4108ZM166.912 85.1312C166.913 85.1313 166.912 85.1312 166.909 85.1309L166.91 85.1309L166.91 85.131C166.911 85.1311 166.912 85.1312 166.912 85.1312Z" fill="#428F99" stroke="black" stroke-width="2"/>
</g>
<defs>
<clipPath id="clip0_62_41">
<rect width="488" height="265.746" fill="white" transform="translate(0 0.626999)"/>
</clipPath>
</defs>
</svg>
