<svg width="303" height="167" viewBox="0 0 303 167" fill="none" xmlns="http://www.w3.org/2000/svg">
<path fill-rule="evenodd" clip-rule="evenodd" d="M13.2196 0.158613C19.7045 -0.0575676 33.1199 2.31538 52.6617 9.8736C71.8136 17.281 96.9554 29.7097 127.413 49.7205C127.685 48.0265 128.226 46.0869 129.164 44.2322C130.534 41.525 132.791 38.9263 136.331 37.6375C136.503 35.8288 136.963 33.5485 137.908 31.6404C138.482 30.4803 139.287 29.352 140.419 28.5921C141.244 28.039 142.192 27.7157 143.243 27.6828C143.715 26.1599 144.432 24.3924 145.368 23.1703C145.946 22.4147 146.877 21.5146 148.174 21.47C149.556 21.4226 150.608 22.3514 151.372 23.4974C151.454 23.6198 151.523 23.751 151.581 23.8836C151.639 23.751 151.708 23.6198 151.79 23.4974C152.554 22.3514 153.606 21.4226 154.988 21.47C156.285 21.5146 157.216 22.4147 157.794 23.1703C158.73 24.3924 159.447 26.1599 159.919 27.6828C160.97 27.7157 161.918 28.039 162.743 28.5921C163.875 29.352 164.68 30.4803 165.254 31.6404C166.199 33.5485 166.659 35.8288 166.831 37.6375C170.371 38.9263 172.628 41.525 173.998 44.2322C174.936 46.0869 175.477 48.0265 175.749 49.7205C206.207 29.7097 231.348 17.281 250.5 9.8736C270.042 2.31538 283.457 -0.0575676 289.942 0.158613L290.224 0.168006L290.483 0.279063C295.409 2.3899 298.63 5.58011 300.516 9.3945C302.386 13.1784 302.89 17.4681 302.591 21.7344C302.001 30.1477 298.266 38.819 294.99 44.3065C293.349 49.9108 289.127 54.9509 284.678 58.9296C280.812 62.387 276.651 65.1529 273.529 66.9035C283.771 82.4951 277.464 98.4824 272.731 104.946C269.562 118.025 260.248 126.848 250.063 132.546C239.9 138.232 228.715 140.903 221.396 141.635C210.38 145.737 199.564 141.574 190.731 135.062C183.266 129.559 177.004 122.236 172.865 116.218C169.864 134.551 166.804 146.968 163.754 154.758C162.13 158.906 160.46 161.876 158.702 163.722C156.905 165.609 154.841 166.476 152.652 165.893L151.581 165.608L150.51 165.893C148.321 166.476 146.257 165.609 144.46 163.722C142.702 161.876 141.032 158.906 139.408 154.758C136.358 146.968 133.298 134.551 130.297 116.218C126.158 122.236 119.896 129.559 112.431 135.062C103.598 141.574 92.782 145.737 81.7657 141.635C74.4466 140.903 63.262 138.232 53.0989 132.546C42.9144 126.848 33.6002 118.025 30.4314 104.946C25.6975 98.4824 19.3909 82.4951 29.6328 66.9035C26.511 65.1529 22.3497 62.387 18.4837 58.9296C14.0349 54.9509 9.81274 49.9108 8.17215 44.3065C4.896 38.819 1.16118 30.1477 0.571335 21.7344C0.272217 17.4681 0.775757 13.1784 2.64621 9.3945C4.53172 5.58011 7.75339 2.3899 12.6787 0.279063L12.9378 0.168006L13.2196 0.158613ZM127.86 53.6101C96.6098 32.8861 70.9424 20.1606 51.5795 12.6716C32.4713 5.28109 19.6089 3.0312 13.6012 3.14951C9.44481 4.99242 6.85468 7.65075 5.33557 10.7239C3.77005 13.8909 3.28943 17.6084 3.56398 21.5246C4.1153 29.3882 7.68675 37.689 10.8444 42.9294L10.9488 43.1027L11.0036 43.2974C12.3732 48.1669 16.1425 52.811 20.4836 56.6934C24.7986 60.5524 29.5122 63.5116 32.5018 65.0396L34.0604 65.8362L33.0345 67.2544C22.3564 82.0153 28.565 97.5037 33.0159 103.395L33.2074 103.648L33.2798 103.957C36.1188 116.102 44.7389 124.431 54.5637 129.928C64.3962 135.429 75.2769 137.998 82.2527 138.668L82.4541 138.688L82.6431 138.76C92.3366 142.452 102.126 138.932 110.651 132.647C119.159 126.375 126.106 117.553 129.881 111.351L132.012 107.851L132.645 111.899C135.834 132.314 139.066 145.656 142.201 153.665C143.775 157.683 145.274 160.226 146.633 161.653C147.413 162.473 148.08 162.865 148.659 163.006C149.201 140.49 149.838 107.262 150.026 78.9646C150.122 64.5178 150.101 51.3678 149.892 41.5879C149.788 36.6951 149.636 32.6646 149.431 29.7435C149.327 28.2801 149.213 27.1207 149.088 26.2811C149.025 25.86 148.963 25.5451 148.907 25.3248C148.875 25.2026 148.852 25.1374 148.843 25.1126C148.55 24.683 148.354 24.5333 148.267 24.4842C148.197 24.5225 148.02 24.6408 147.75 24.994C146.933 26.0601 146.209 28.0375 145.809 29.6398L145.462 31.0274L144.059 30.7469C143.207 30.5765 142.593 30.7464 142.091 31.0832C141.545 31.45 141.036 32.0839 140.597 32.9712C139.711 34.7599 139.321 37.1457 139.257 38.8146L139.215 39.9144L138.153 40.2041C135.037 41.0537 133.064 43.1685 131.842 45.5862C130.604 48.0332 130.189 50.7004 130.189 52.36V55.1546L127.86 53.6101ZM148.216 24.4622C148.216 24.4627 148.22 24.4643 148.229 24.4658C148.22 24.4625 148.216 24.4618 148.216 24.4622ZM175.302 53.6101C206.552 32.8861 232.22 20.1606 251.582 12.6716C270.691 5.28109 283.553 3.0312 289.561 3.14951C293.717 4.99242 296.307 7.65075 297.826 10.7239C299.392 13.8909 299.873 17.6084 299.598 21.5246C299.047 29.3882 295.475 37.689 292.318 42.9294L292.213 43.1027L292.158 43.2974C290.789 48.1669 287.019 52.811 282.678 56.6934C278.363 60.5524 273.65 63.5116 270.66 65.0396L269.102 65.8362L270.127 67.2544C280.806 82.0153 274.597 97.5037 270.146 103.395L269.955 103.648L269.882 103.957C267.043 116.102 258.423 124.431 248.598 129.928C238.766 135.429 227.885 137.998 220.909 138.668L220.708 138.688L220.519 138.76C210.825 142.452 201.036 138.932 192.511 132.647C184.003 126.375 177.056 117.553 173.281 111.351L171.15 107.851L170.517 111.899C167.328 132.314 164.096 145.656 160.961 153.665C159.387 157.683 157.888 160.226 156.529 161.653C155.749 162.473 155.082 162.865 154.503 163.006C153.961 140.49 153.324 107.262 153.136 78.9646C153.04 64.5178 153.061 51.3678 153.27 41.5879C153.374 36.6951 153.526 32.6646 153.731 29.7435C153.834 28.2801 153.949 27.1207 154.074 26.2811C154.137 25.86 154.199 25.5451 154.255 25.3248C154.287 25.2026 154.31 25.1374 154.319 25.1126C154.612 24.683 154.808 24.5333 154.895 24.4842C154.965 24.5225 155.142 24.6408 155.412 24.994C156.229 26.0601 156.953 28.0375 157.353 29.6398L157.7 31.0274L159.103 30.7469C159.955 30.5765 160.569 30.7464 161.071 31.0832C161.617 31.45 162.126 32.0839 162.565 32.9712C163.451 34.7599 163.841 37.1457 163.905 38.8146L163.947 39.9144L165.009 40.2041C168.125 41.0537 170.098 43.1685 171.32 45.5862C172.558 48.0332 172.973 50.7004 172.973 52.36V55.1546L175.302 53.6101ZM154.933 24.4658C154.942 24.4643 154.946 24.4627 154.946 24.4622C154.946 24.462 154.945 24.4621 154.943 24.4626C154.941 24.4631 154.938 24.4641 154.933 24.4658Z" fill="black"/>
</svg>
